<svg xmlns="http://www.w3.org/2000/svg" version="1.1" x="0" y="0" width="20" height="20" viewBox="0 0 20 20" enable-background="new 0 0 20 20" xml:space="preserve"><path fill="#CCCCCC" d="M19 2h-3.1V1C15.9 0.4 15.5 0 15 0c-0.5 0-1 0.4-1 1V2h-3V1C11 0.4 10.5 0 10 0 9.5 0 9 0.4 9 1V2H6V1C6 0.4 5.6 0 5 0S4.1 0.4 4.1 1V2H1C0.4 2 0 2.4 0 2.9v2.6 13.5C0 19.6 0.4 20 1 20h18.1c0.5 0 1-0.4 1-1V5.5 2.9C20 2.4 19.6 2 19 2zM18.1 18.1H1.9V5.5h16.1V18.1z"/><rect x="4.2" y="7.4" fill="#CCCCCC" width="2.5" height="2"/><rect x="8.7" y="7.4" fill="#CCCCCC" width="2.5" height="2"/><rect x="13.2" y="7.4" fill="#CCCCCC" width="2.5" height="2"/><rect x="4.2" y="10.7" fill="#CCCCCC" width="2.5" height="2"/><rect x="8.7" y="10.7" fill="#CCCCCC" width="2.5" height="2"/><rect x="13.2" y="10.7" fill="#CCCCCC" width="2.5" height="2"/><rect x="4.2" y="14" fill="#CCCCCC" width="2.5" height="2"/><rect x="8.7" y="14" fill="#CCCCCC" width="2.5" height="2"/><rect x="13.2" y="14" fill="#CCCCCC" width="2.5" height="2"/></svg>