<svg xmlns="http://www.w3.org/2000/svg" width="16" height="18" viewBox="0 0 16 18" version="1.1"><g stroke="none" stroke-width="1" fill="none" fill-rule="evenodd"><g transform="translate(-237.000000, -7391.000000)" fill="#999999"><path d="M242.3 7397.6L244.5 7397.6 244.5 7399.8 242.3 7399.8 242.3 7397.6ZM245.5 7397.6L247.7 7397.6 247.7 7399.8 245.5 7399.8 245.5 7397.6ZM248.7 7397.6L250.9 7397.6 250.9 7399.8 248.7 7399.8 248.7 7397.6ZM239.1 7404.2L241.3 7404.2 241.3 7406.4 239.1 7406.4 239.1 7404.2ZM242.3 7404.2L244.5 7404.2 244.5 7406.4 242.3 7406.4 242.3 7404.2ZM245.5 7404.2L247.7 7404.2 247.7 7406.4 245.5 7406.4 245.5 7404.2ZM242.3 7400.9L244.5 7400.9 244.5 7403.1 242.3 7403.1 242.3 7400.9ZM245.5 7400.9L247.7 7400.9 247.7 7403.1 245.5 7403.1 245.5 7400.9ZM248.7 7400.9L250.9 7400.9 250.9 7403.1 248.7 7403.1 248.7 7400.9ZM239.1 7400.9L241.3 7400.9 241.3 7403.1 239.1 7403.1 239.1 7400.9ZM250.9 7391L250.9 7392.1 248.7 7392.1 248.7 7391 241.3 7391 241.3 7392.1 239.1 7392.1 239.1 7391 237 7391 237 7408.6 253 7408.6 253 7391 250.9 7391 250.9 7391ZM251.9 7407.5L238.1 7407.5 238.1 7395.4 251.9 7395.4 251.9 7407.5 251.9 7407.5Z"/></g></g></svg>