<svg xmlns="http://www.w3.org/2000/svg" xmlns:xlink="http://www.w3.org/1999/xlink" version="1.1" id="Layer_1" x="0" y="0" width="20" height="20" viewBox="0 0 20 20" enable-background="new 0 0 20 20" xml:space="preserve">
  <path fill="#409CD1" d="M9.97-0.03c-5.47 0-10 4.53-10 10 0 5.47 4.53 10 10 10 5.47 0 10-4.53 10-10C19.97 4.51 15.44-0.03 9.97-0.03zM9.97 14.64c-2.53 0-4.67-2.13-4.67-4.67s2.13-4.67 4.67-4.67 4.67 2.13 4.67 4.67S12.51 14.64 9.97 14.64z"/>
  <path fill="#FFFFFF" d="M9.97 5.31c-2.53 0-4.67 2.13-4.67 4.67s2.13 4.67 4.67 4.67 4.67-2.13 4.67-4.67S12.51 5.31 9.97 5.31z"/>
</svg>
