<svg xmlns="http://www.w3.org/2000/svg" width="20" height="20" viewBox="0 0 20 20" version="1.1"><g stroke="none" stroke-width="1" fill="none" fill-rule="evenodd"><g transform="translate(-426.000000, -3524.000000)"><g transform="translate(89.000000, 3524.000000)"><g transform="translate(337.000000, 0.000000)"><path d="M10 0C4.5 0 0 4.4 0 10 0 15.4 4.5 19.9 10 19.9 15.5 19.9 20 15.4 20 10 20 4.4 15.5 0 10 0M7.1 10.9C12.4 6.6 10.3 15.6 16.5 6.9 16.6 6.6 16.5 6.4 16.2 6.6 8.6 9.5 11.7 1.5 5.8 5.8L4.5 6.2 6.9 15.4 8.2 15.4 7.1 10.9Z" fill="#E74C3C"/></g></g></g></g></svg>