<svg xmlns="http://www.w3.org/2000/svg" width="20" height="20" viewBox="0 0 20 20" version="1.1"><g stroke="none" stroke-width="1" fill="none" fill-rule="evenodd"><g transform="translate(-66.000000, -7292.000000)" fill="#E74C3C"><path d="M76 7292C70.5 7292 66 7296.5 66 7302 66 7307.5 70.5 7312 76 7312 81.5 7312 86 7307.5 86 7302 86 7296.5 81.5 7292 76 7292L76 7292ZM80.4 7304.8L78.8 7306.4 76 7303.6 73.2 7306.4 71.6 7304.8 74.4 7302 71.6 7299.2 73.2 7297.6 76 7300.4 78.8 7297.6 80.4 7299.2 77.6 7302 80.4 7304.8 80.4 7304.8Z"/></g></g></svg>