<svg xmlns="http://www.w3.org/2000/svg" width="20" height="20" viewBox="0 0 20 20" version="1.1"><defs><path d="M0 0.4L19.6 0.4 19.6 20 0 20"/></defs><g stroke="none" stroke-width="1" fill="none" fill-rule="evenodd"><g transform="translate(-292.000000, -7567.000000)"><g transform="translate(292.000000, 7567.000000)"><mask fill="white"/><path d="M19.6 10.8C19.3 16.2 14.6 20.3 9.2 20 3.8 19.7-0.3 15 0 9.6 0.3 4.2 5 0.1 10.4 0.4 15.8 0.7 19.9 5.4 19.6 10.8" fill="#96BC34" mask="url(#mask-2)"/><path d="M12.3 14.7C12.9 14.7 13.3 14.3 13.3 13.7L13.6 7.8C13.6 7.8 13.6 7.7 13.6 7.7 13.6 7.7 13.5 7.6 13.5 7.6 13.5 7.5 13.5 7.5 13.5 7.4 13.5 7.4 13.5 7.4 13.5 7.4 13.5 7.3 13.4 7.3 13.4 7.2 13.4 7.2 13.4 7.2 13.4 7.2 13.4 7.2 13.4 7.1 13.3 7.1 13.3 7.1 13.3 7.1 13.3 7 13.3 7 13.3 7 13.3 7 13.2 7 13.2 7 13.1 7 13.1 6.9 13.1 6.9 13 6.9 13 6.9 13 6.8 13 6.8 12.9 6.8 12.8 6.8 12.8 6.8 12.7 6.8 12.7 6.8 12.7 6.8L12.6 6.8 12.6 6.8 12.6 6.8 6.7 6.3C6.2 6.2 5.7 6.6 5.7 7.2 5.6 7.7 6 8.2 6.6 8.2L10.3 8.5C7.2 11 4.1 11.6 1.8 11.6 1.1 11.6 0.6 11.6 0.1 11.5 0.2 12.2 0.3 12.9 0.6 13.5 1 13.5 1.4 13.6 1.8 13.6 4.4 13.6 8.1 12.8 11.5 10L11.4 13.7C11.4 14.2 11.8 14.7 12.3 14.7" fill="#FFFFFF"/></g></g></g></svg>