<svg xmlns="http://www.w3.org/2000/svg" height="31" width="32" version="1.1" viewBox="0 0 32 31"><defs><path d="m0 0.3h31.9v30.6h-31.9"/></defs><g fill-rule="evenodd" fill="none"><g transform="translate(-835 -255)"><g transform="translate(835 255)"><path fill-opacity="1" fill="#e74c3c" d="m31.2 10.6c0.1-0.5 0.1-0.9 0.1-1.4 0-4.6-3.7-8.4-8.4-8.4-2.9 0-5.5 1.5-7 3.8-1.5-2.3-4.1-3.8-7-3.8-4.6 0-8.4 3.7-8.4 8.4l0 0c0 0 0 0 0 0 0 0.5 0 0.9 0.1 1.4 1.4 8.6 14.7 19.2 15.2 19.7v0s0 0 0 0c0 0 0 0 0 0v0c0.5-0.4 13.8-11.1 15.2-19.7"/><mask fill="white"/><path fill="#e74c3c" mask="url(#mask-2)" d="m8.9 1.4c-4.3 0-7.8 3.5-7.8 7.8 0 0.4 0 0.9 0.1 1.3 1.2 7.7 12.5 17.2 14.7 19 2.2-1.8 13.4-11.3 14.7-19 0.1-0.4 0.1-0.9 0.1-1.3 0-4.3-3.5-7.8-7.8-7.8-2.6 0-5.1 1.3-6.5 3.6-0.1 0.2-0.3 0.3-0.5 0.3s-0.4-0.1-0.5-0.3c-1.4-2.2-3.9-3.6-6.5-3.6m7 29.4h0c-0.1 0-0.2 0-0.2-0.1-0.1 0-0.1-0.1-0.2-0.1-1.1-0.9-14-11.4-15.4-20-0.1-0.5-0.1-1-0.1-1.5 0-4.9 4-8.9 8.9-8.9 2.8 0 5.3 1.3 7 3.4 1.7-2.1 4.3-3.4 7-3.4 4.9 0 8.9 4 8.9 8.9 0 0.5 0 1-0.1 1.5-1.4 8.6-14.3 19.1-15.4 20 0 0-0.1 0.1-0.2 0.1-0.1 0-0.2 0.1-0.3 0.1"/></g></g></g></svg>