<svg xmlns="http://www.w3.org/2000/svg" width="20" height="20" viewBox="0 0 20 20" version="1.1"><g stroke="none" stroke-width="1" fill="none" fill-rule="evenodd"><g transform="translate(-66.000000, -7338.000000)"><g transform="translate(66.000000, 7338.000000)"><g fill="#409CD1"><path d="M10 0C11.8 0 13.5 0.4 15 1.3 16.6 2.2 17.8 3.4 18.7 5 19.6 6.5 20 8.2 20 10 20 11.8 19.6 13.5 18.7 15 17.8 16.6 16.6 17.8 15 18.7 13.5 19.6 11.8 20 10 20 8.2 20 6.5 19.6 5 18.7 3.4 17.8 2.2 16.6 1.3 15 0.4 13.5 0 11.8 0 10 0 8.2 0.4 6.5 1.3 5 2.2 3.4 3.4 2.2 5 1.3 6.5 0.4 8.2 0 10 0Z"/></g><g transform="translate(9.000000, 5.000000)" fill="#FFFFFF"><path d="M0 8.2L0 4 2.5 4 2.5 9 0 9 0 8.2Z"/><rect x="0" y="0" width="2.5" height="2"/></g></g></g></g></svg>