<svg xmlns="http://www.w3.org/2000/svg" width="20" height="20" viewBox="0 0 20 20" version="1.1"><g stroke="none" stroke-width="1" fill="none" fill-rule="evenodd"><g transform="translate(-66.000000, -7200.000000)" fill="#409CD1"><path d="M76 7200C77.4 7200 78.6 7200.3 79.9 7200.8 81.1 7201.3 82.2 7202 83.1 7202.9 84 7203.8 84.7 7204.9 85.2 7206.1 85.7 7207.4 86 7208.6 86 7210 86 7211.8 85.6 7213.5 84.7 7215 83.8 7216.6 82.6 7217.8 81 7218.7 79.5 7219.6 77.8 7220 76 7220 74.2 7220 72.5 7219.6 71 7218.7 69.4 7217.8 68.2 7216.6 67.3 7215 66.4 7213.5 66 7211.8 66 7210 66 7208.6 66.3 7207.4 66.8 7206.1 67.3 7204.9 68 7203.8 68.9 7202.9 69.8 7202 70.9 7201.3 72.1 7200.8 73.4 7200.3 74.6 7200 76 7200 76 7200 74.6 7200 76 7200L76 7200 76 7200ZM71 7210L76.4 7214 76.4 7211.4 80.5 7211.4 80.5 7208.7 76.4 7208.7 76.4 7206 71 7210 71 7210Z"/></g></g></svg>