<svg xmlns="http://www.w3.org/2000/svg" xmlns:xlink="http://www.w3.org/1999/xlink" width="20" height="20" viewBox="0 0 20 20" version="1.1">
 <g id="Page-1" stroke="none" stroke-width="1" fill="none" fill-rule="evenodd">
    <g id="Artboard-3" transform="translate(-990.000000, -87.000000)" fill="#FFFFFF">
      <g id="Group" transform="translate(990.000000, 87.000000)">
        <path d="M18.1 1.9L15.14 1.9 15.14 0.95C15.14 0.38 14.76 0 14.29 0 13.81 0 13.33 0.38 13.33 0.95L13.33 1.9 10.48 1.9 10.48 0.95C10.48 0.38 10 0 9.52 0 9.05 0 8.57 0.38 8.57 0.95L8.57 1.9 5.71 1.9 5.71 0.95C5.71 0.38 5.33 0 4.76 0 4.19 0 3.91 0.38 3.91 0.95L3.91 1.9 0.95 1.9C0.38 1.9 0 2.29 0 2.76L0 5.24 0 18.1C0 18.67 0.38 19.05 0.95 19.05L18.19 19.05C18.67 19.05 19.15 18.67 19.15 18.1L19.15 5.24 19.15 2.76C19.05 2.29 18.67 1.9 18.1 1.9L18.1 1.9ZM17.24 17.24L1.81 17.24 1.81 5.24 17.14 5.24 17.14 17.24 17.24 17.24Z" id="Shape"/>
        <polyline id="Fill-19-Copy-2" points="4.76 12.14 6.33 10.57 7.85 12.1 12.33 7.62 13.9 9.19 7.86 15.24 4.76 12.14"/>
      </g>
    </g>
  </g>
</svg>
