<svg xmlns="http://www.w3.org/2000/svg" width="20" height="20" viewBox="0 0 20 20" version="1.1"><g stroke="none" stroke-width="1" fill="none" fill-rule="evenodd"><g transform="translate(-386.000000, -3524.000000)"><g transform="translate(89.000000, 3524.000000)"><g transform="translate(297.000000, 0.000000)"><path d="M10 20C15.5 20 20 15.5 20 10 20 4.5 15.5 0 10 0 4.5 0 0 4.5 0 10 0 15.5 4.5 20 10 20M10 9.7C9 9.7 8.1 8.9 8.1 7.8 8.1 6.8 9 5.9 10 5.9 11 5.9 11.9 6.8 11.9 7.8 11.9 8.9 11 9.7 10 9.7M10 4.2C8.1 4.2 6.5 5.8 6.5 7.7 6.5 11 10 15.5 10 15.5 10 15.5 13.5 11.2 13.5 7.7 13.5 5.8 12 4.2 10 4.2" fill="#41C4AB"/></g></g></g></g></svg>