<svg xmlns="http://www.w3.org/2000/svg" width="20" height="20" viewBox="0 0 20 20" version="1.1"><g stroke="none" stroke-width="1" fill="none" fill-rule="evenodd"><g transform="translate(-66.000000, -7386.000000)"><g transform="translate(66.000000, 7386.000000)"><path d="M5 1.3C6.5 0.4 8.2 0 10 0 11.8 0 13.5 0.4 15 1.3 16.6 2.2 17.8 3.4 18.7 5 19.6 6.5 20 8.2 20 10 20 11.8 19.6 13.5 18.7 15 17.8 16.6 16.6 17.8 15 18.7 13.5 19.6 11.8 20 10 20 8.2 20 6.5 19.6 5 18.7 3.4 17.8 2.2 16.6 1.3 15 0.4 13.5 0 11.8 0 10 0 8.2 0.4 6.5 1.3 5 2.2 3.4 3.4 2.2 5 1.3 5 1.3 3.4 2.2 5 1.3L5 1.3 5 1.3Z" fill-opacity="100" fill="#F39A2D"/><rect fill="#FFFFFF" x="9" y="4" width="2.5" height="7"/><rect fill="#FFFFFF" x="9" y="13" width="2.5" height="2"/></g></g></g></svg>