<svg width="32" height="32" viewBox="0 0 32 32" xmlns="http://www.w3.org/2000/svg" xmlns:xlink="http://www.w3.org/1999/xlink"><title>Page 1</title><defs><path id="a" d="M15.8944 32h15.89432V0H.00012v32h15.8943z"/></defs><g fill="none" fill-rule="evenodd"><g><mask id="b" fill="#fff"><use xlink:href="#a"/></mask><path d="M15.89393 0C7.11576 0 .0001 7.16373.0001 16.00085.0001 24.83733 7.11577 32 15.89394 32c8.7788 0 15.8949-7.16267 15.8949-15.99915C31.78882 7.16373 24.67272 0 15.89392 0" fill="#D34836" mask="url(#b)"/></g><path d="M13.60627 14.78812v2.1824h3.5855c-.1454.93568-1.084 2.7456-3.5855 2.7456-2.15862 0-3.91904-1.80032-3.91904-4.01878 0-2.21802 1.76042-4.0177 3.91904-4.0177 1.2283 0 2.0499.52714 2.52037.98154l1.7153-1.66357c-1.1018-1.03658-2.52865-1.66356-4.23567-1.66356-3.49478 0-6.32137 2.84565-6.32137 6.3633 0 3.5183 2.8266 6.36352 6.32137 6.36352 3.64927 0 6.06835-2.58133 6.06835-6.21824 0-.41792-.04387-.73557-.09833-1.0545h-5.97003zM27.15304 14.78812h-1.8062v-1.81824h-1.80662v1.81824h-1.8062v1.81845h1.8062v1.81845h1.80662v-1.81845h1.8062" fill="#FFF"/></g></svg>