<svg xmlns="http://www.w3.org/2000/svg" width="32" height="32">
  <defs>
    <linearGradient id="a" x1="66.8139539%" x2="98.3430837%" y1="-10.5072748%" y2="111.45127%">
      <stop stop-color="#4E5FD3" offset="0%"/>
      <stop stop-color="#913BAF" offset="14.2763214%"/>
      <stop stop-color="#D52D88" offset="76.145798%"/>
      <stop stop-color="#F26D4F" offset="100%"/>
    </linearGradient>
    <radialGradient id="b" cx="30.2743283%" cy="100%" r="93.3946263%" fx="30.2743283%" fy="100%">
      <stop stop-color="#FED276" offset="0%"/>
      <stop stop-color="#FDBD61" stop-opacity=".97500566" offset="17.0240041%"/>
      <stop stop-color="#FDB95F" stop-opacity=".97691328" offset="19.1903378%"/>
      <stop stop-color="#F6804D" offset="45.4081253%"/>
      <stop stop-color="#E83D5C" stop-opacity="0" offset="100%"/>
    </radialGradient>
  </defs>
  <g fill="none" fill-rule="evenodd">
    <path fill="url(#a)" d="M15.9997867 32C7.16352 32 0 24.8366933 0 15.9997867 0 7.16373333 7.16352 0 15.9997867 0c8.83648 0 16 7.16373333 16 15.9997867 0 8.8369066-7.16352 16.0002133-16 16.0002133z"/>
    <path fill="url(#b)" d="M15.9997867 32C7.16352 32 0 24.8366933 0 15.9997867 0 7.16373333 7.16352 0 15.9997867 0c8.83648 0 16 7.16373333 16 15.9997867 0 8.8369066-7.16352 16.0002133-16 16.0002133z"/>
    <path fill="#FFF" d="M16.0006902 7.49984896c-2.3084993 0-2.5982128.01009393-3.5048956.05135508-.9049119.04143823-1.5225895.1847012-2.0630575.39490285-.559062.217108-1.0332996.50752983-1.50576632.98017364-.4728209.47246673-.76324273.94670433-.9810591 1.50558925-.2107329.540645-.35417296 1.1584998-.39490285 2.0630575-.0405528.9066828-.051178 1.1965733-.051178 3.5050727 0 2.3084994.01027102 2.5973274.05135508 3.5040102.04161535.9049119.1848783 1.5225895.39490287 2.0630575.2172851.559062.50770694 1.0332996.98035076 1.5057663.47228964.4728209.94652723.7639511 1.50523508.9810591.5408221.2102017 1.1586768.3534646 2.0634117.3949029.9066827.0412611 1.1962191.051355 3.5045414.051355 2.3086764 0 2.5975045-.0100939 3.5041873-.051355.9049119-.0414383 1.5232979-.1847012 2.06412-.3949029.5588849-.217108 1.0324142-.5082382 1.5047038-.9810591.4728209-.4724667.7632427-.9467043.9810591-1.5055892.2089621-.5406451.3524021-1.1584998.3949029-2.0630575.0407298-.9066828.051355-1.1956879.051355-3.5041873 0-2.3084994-.0106252-2.5982128-.051355-3.5048956-.0425008-.9049119-.1859408-1.5225896-.3949029-2.0630575-.2178164-.55906203-.5082382-1.03329963-.9810591-1.50576636-.4728209-.4728209-.9456418-.76324273-1.5052351-.98017366-.5418846-.21020167-1.1599164-.35346463-2.0648283-.39490286-.9066828-.04126115-1.1953338-.05135508-3.5045415-.05135508h.0026563zM15.2381558 9.031647c.2263166-.00035416.4788419 0 .7625344 0 2.2695404 0 2.5385347.008146 3.4347694.04887588.8287647.0378965 1.2785644.17637813 1.5781947.29272395.3966737.15406524.6794808.33823518.976809.63574047.2975053.2975053.4816753.5808436.6360947.9775174.1163458.2992761.2550045.7490758.2927239 1.5778405.0407299.8960576.0495842 1.165229.0495842 3.4337068 0 2.2684779-.0088543 2.5376493-.0495842 3.4337069-.0378965.8287647-.1763781 1.2785644-.2927239 1.5778405-.1540653.3966737-.3385894.6791267-.6360947.9764549-.2975053.2975053-.5799582.4816752-.976809.6357404-.2992762.1168771-.74943.2550046-1.5781947.2929011-.8960576.0407299-1.165229.0495842-3.4347694.0495842-2.2697174 0-2.5387118-.0088543-3.4347693-.0495842-.8287648-.0382507-1.2785644-.1767323-1.5783718-.2930781-.3966738-.1540653-.6800121-.3382352-.9775174-.6357405-.2975053-.2975053-.48167524-.5801353-.63609465-.9769861-.11634582-.2992762-.25500453-.7490758-.29272395-1.5778405-.0407299-.8960576-.04887587-1.1652291-.04887587-3.4351236s.00814598-2.5376492.04887587-3.4337068c.0378965-.8287648.17637813-1.2785644.29272395-1.5781947.15406524-.3966738.33858935-.6800121.63609465-.9775174s.5808436-.48167524.9775174-.63609465c.2996303-.11687708.749607-.25500454 1.5783718-.29307813.7841389-.0354173 1.0880193-.04604248 2.6722349-.04781335V9.031647zM20.538 10.4430263c-.563135 0-1.0200181.4563518-1.0200181 1.0196639 0 .563135.4568831 1.0200181 1.0200181 1.0200181.563135 0 1.0200181-.4568831 1.0200181-1.0200181 0-.563135-.4568831-1.0200181-1.0200181-1.0200181v.0003542zm-4.5373098 1.191792c-2.4106782 0-4.3651817 1.9545034-4.3651817 4.3651817s1.9545035 4.3642963 4.3651817 4.3642963c2.4106783 0 4.3644734-1.953618 4.3644734-4.3642963 0-2.4106783-1.9539722-4.3651817-4.3646505-4.3651817h.0001771zm0 1.531798c1.5647362 0 2.8333837 1.2684705 2.8333837 2.8333837 0 1.5647361-1.2686475 2.8333837-2.8333837 2.8333837-1.5649132 0-2.8333837-1.2686476-2.8333837-2.8333837 0-1.5649132 1.2684705-2.8333837 2.8333837-2.8333837z"/>
  </g>
</svg>
