<svg xmlns="http://www.w3.org/2000/svg" width="32" height="32" viewBox="0 0 32 32" version="1.1"><g stroke="none" stroke-width="1" fill="none" fill-rule="evenodd"><g transform="translate(-267.000000, -126.000000)"><g transform="translate(267.000000, 126.000000)"><path d="M16 0C7.2 0 0 7.2 0 16 0 24.8 7.2 32 16 32 24.8 32 32 24.8 32 16 32 7.2 24.8 0 16 0M8 11.5C8.5 11.8 14.9 15.2 15.1 15.4 15.4 15.5 15.7 15.5 16 15.5 16.3 15.5 16.6 15.5 16.8 15.4 17.1 15.2 23.5 11.8 23.9 11.5 24.4 11.3 24.8 10.3 24 10.3L8 10.3C7.1 10.3 7.6 11.3 8 11.5M24.1 13.6C23.6 13.9 17.2 17.3 16.8 17.4 16.5 17.6 16.3 17.6 16 17.6 15.7 17.6 15.4 17.6 15.1 17.4 14.8 17.3 8.4 13.9 7.9 13.6 7.5 13.4 7.5 13.7 7.5 13.8L7.5 20.7C7.5 21.1 8 21.7 8.4 21.7L23.6 21.7C24 21.7 24.5 21.1 24.5 20.7L24.5 13.8C24.5 13.7 24.5 13.4 24.1 13.6" fill="#333333"/></g></g></g></svg>