<?xml version="1.0" encoding="UTF-8"?>
<svg width="32px" height="32px" viewBox="0 0 32 32" version="1.1" xmlns="http://www.w3.org/2000/svg" xmlns:xlink="http://www.w3.org/1999/xlink">
    <!-- Generator: Sketch 41 (35326) - http://www.bohemiancoding.com/sketch -->
    <title>Group 3</title>
    <desc>Created with Sketch.</desc>
    <defs></defs>
    <g id="Page-1" stroke="none" stroke-width="1" fill="none" fill-rule="evenodd">
        <g id="[XS]-EBD_Juan" transform="translate(-207.000000, -431.000000)">
            <g id="Group-Copy" transform="translate(0.000000, 105.000000)">
                <g id="SOCIAL-SHARING" transform="translate(81.000000, 326.000000)">
                    <g id="Group-3" transform="translate(126.000000, 0.000000)">
                        <circle id="Oval" fill="#FFFFFF" cx="16" cy="16" r="16"></circle>
                        <path d="M15.9979017,6 C10.4762034,6 6,10.170367 6,15.3148152 C6,18.2461875 7.45385636,20.8609183 9.72592608,22.568386 L9.72592608,26.1200008 L13.1301184,24.2400848 C14.0386234,24.4930752 15.0010922,24.6296304 15.9979017,24.6296304 C21.5195999,24.6296304 25.9958033,20.4592634 25.9958033,15.3148152 C25.9958033,10.170367 21.5195999,6 15.9979017,6 L15.9979017,6 Z M16.9914819,18.5439511 L14.4454325,15.8116053 L9.47753101,18.5439511 L14.9422226,12.7066669 L17.5503709,15.4390127 L22.4561735,12.7066669 L16.9914819,18.5439511 L16.9914819,18.5439511 Z" id="Shape" fill="#0084FF"></path>
                    </g>
                </g>
            </g>
        </g>
    </g>
</svg>