<svg width="32" height="33" viewBox="0 0 32 33" xmlns="http://www.w3.org/2000/svg"><title>TWITTER</title><g fill="none" fill-rule="evenodd"><path d="M32 16.6c0 8.83627-7.16352 16-16 16-8.8367 0-16-7.16373-16-16C0 7.76373 7.1633.6 16 .6c8.83648 0 16 7.16373 16 16" fill="#409CD1"/><path d="M23.6375 10.83063c-.60864.36182-1.28128.62187-2 .7648-.57493-.61333-1.3954-.99605-2.29994-.99605-1.7423 0-3.1518 1.41312-3.1518 3.15136 0 .24875.02668.48853.0813.7198-2.62017-.1342-4.93974-1.3884-6.49516-3.29473-.27114.46507-.42666 1.00886-.42666 1.5855 0 1.0944.55552 2.0574 1.4016 2.62485-.51563-.0175-1.0031-.1602-1.42806-.3953v.0384c0 1.5264 1.08758 2.8 2.528 3.0895-.2624.0721-.54272.1105-.82965.1105-.2031 0-.4-.01963-.59136-.05483.4015 1.24992 1.5648 2.1602 2.94293 2.18688-1.07797.84587-2.43605 1.34827-3.91253 1.34827-.25536 0-.5071-.01174-.7522-.04203 1.39284.89664 3.05 1.41696 4.8305 1.41696 5.7967 0 8.9647-4.80235 8.9647-8.96875 0-.13376-.00236-.2703-.00855-.40618.61568-.44374 1.15008-.9999 1.57184-1.632-.56554.25152-1.17184.42026-1.81013.49834.65173-.39124 1.14987-1.01012 1.38517-1.74527" fill="#FFF"/></g></svg>