<svg xmlns="http://www.w3.org/2000/svg" viewBox="0 0 475.28 45.96"><defs><style>.cls-1{fill:#3f9ad0;}.cls-2{fill:#cccbcb;}</style></defs><title>atomic</title><g id="Layer_2" data-name="Layer 2"><g id="Layer_1-2" data-name="Layer 1"><path class="cls-1" d="M90.45,44.93h9.39V22a17.17,17.17,0,0,1,10.3-4.22c1.29-.07,1.86,0,1.86,0V8.71h-1.86c-5.15,0-8.6,3.19-10.46,5.19h0V9.28H90.45Z"/><path class="cls-1" d="M126.62,8.7c-5,0-8.4,3-10.29,5V22a17.16,17.16,0,0,1,10.29-4.22c1.29-.07,1.86,0,1.86,0V8.71Z"/><path class="cls-1" d="M115,22l-.54,0a17.64,17.64,0,0,0-7.52,2.23V44.93h9.39V22Z"/><path class="cls-1" d="M20.75,19.23c0-6.37,4.94-10.52,15.45-10.52s15.45,4.15,15.45,10.52V34.89c0,6.44-4.94,10.59-15.45,10.59S20.75,41.33,20.75,34.89ZM42.28,20c0-2.65-2.07-3.86-6.08-3.86S30.12,17.36,30.12,20V34.1c0,2.72,2.07,3.94,6.08,3.94s6.08-1.22,6.08-3.94Z"/><path class="cls-1" d="M18,9H9.49V0H0V34.22c0,7,3.23,10.64,13.8,10.64h3.84V37.1h-2.4c-4,0-5.75-1.22-5.75-3.88V18H18Z"/><path class="cls-1" d="M195.2.21h-9.38V12.65a17.78,17.78,0,0,0-11.16-3.86c-7.08,0-10.37,4.08-10.37,10.44V35.11c0,6.37,3.29,10.45,10.37,10.45a17.75,17.75,0,0,0,11.37-4V45h9.17Zm-9.38,33.9c-1.5,1.15-4.72,3.29-8.23,3.29s-3.94-1.86-3.94-3.79V20.66c0-1.86.58-3.72,3.94-3.72s6.72,2.14,8.23,3.29Z"/><path class="cls-1" d="M160.07,19c0-6.37-3.93-10.3-14.38-10.3-10.23,0-14.45,3.93-14.45,10.3v2H140V19.33h0c0-2.5,1.49-3.61,5.5-3.61s5.37,1.43,5.37,4V24.3H141c-7.08,0-10.73,4.22-10.73,9v3.22c0,4.72,3.29,8.94,10.3,8.94a16.35,16.35,0,0,0,10.59-3.94v3.37h8.93Zm-9.23,16C149.2,36.18,146.26,38,143,38c-2.15,0-3.58-.64-3.58-2.79V34.1c0-1.86.65-3.22,3.43-3.22h8Z"/><path class="cls-1" d="M200.2,21.13h8.72V19.4h0c0-2.5,1.48-3.61,5.5-3.61s5.37,1.43,5.37,4v4.58h-9.87c-7.08,0-10.73,4.23-10.73,9v3.22c0,4.72,3.29,8.94,10.3,8.94a16.33,16.33,0,0,0,10.59-3.94V45H229V19.08c0-6.37-3.94-10.3-14.38-10.3-10.23,0-14.44,3.93-14.44,10.3ZM219.79,35c-1.65,1.22-4.58,3.08-7.87,3.08-2.14,0-3.58-.64-3.58-2.79V34.18c0-1.86.64-3.22,3.43-3.22h8Z"/><path class="cls-1" d="M233.17,44.93h9.39V22a17.16,17.16,0,0,1,10.29-4.22c1.29-.07,1.86,0,1.86,0V8.71h-1.86c-5.15,0-8.6,3.19-10.46,5.19h0V9.28h-9.23Z"/><path class="cls-1" d="M86.28,9.28V44.91H77.13V41.55h0a16,16,0,0,1-11,3.94c-6.51,0-10.3-4-10.3-9.58V9.28h9.37V33.53c0,2.58.86,3.79,3.86,3.79a13.2,13.2,0,0,0,7.87-3.15V9.28"/><path class="cls-1" d="M259.72,10.42V9.27h5.85v1.14h-2.24v5.72H262V10.42Zm9-1.14,1.75,4.91,1.77-4.91h1.95v6.86H272.9V10.6L271,16.13h-1.1L268,10.6v5.53h-1.26V9.27Z"/><path class="cls-2" d="M313.1,41.27h-.2q-.64.52-1.52,1.32a13.84,13.84,0,0,1-2.06,1.52,14.78,14.78,0,0,1-2.45,1.26,7.65,7.65,0,0,1-2.89.53,7.91,7.91,0,0,1-6.56-3q-2.38-3-2.38-8.21a18.9,18.9,0,0,1,1.33-7A20.71,20.71,0,0,1,300,21.63a17.5,17.5,0,0,1,5.28-4.15,13.58,13.58,0,0,1,6.29-1.58,13.76,13.76,0,0,1,3.91.55,11.4,11.4,0,0,1,2.93,1.24l5.3-1.36.35.43-4.4,18.66q-.23.9-.48,2.18a11.28,11.28,0,0,0-.25,1.89,2.82,2.82,0,0,0,.69,2.23,3.69,3.69,0,0,0,2.34.58,10,10,0,0,0,1.56-.17,9.17,9.17,0,0,0,1.56-.38l-.43,1.85q-2.61,1-3.88,1.5a9.14,9.14,0,0,1-3.1.46,4.46,4.46,0,0,1-3.3-1.21A4.61,4.61,0,0,1,313.1,41.27ZM317.27,23a8,8,0,0,0-.2-1.82,3.86,3.86,0,0,0-.84-1.62,4,4,0,0,0-1.59-1.16,6.48,6.48,0,0,0-2.54-.43,7.1,7.1,0,0,0-4.1,1.39,14.13,14.13,0,0,0-3.58,3.73,19.43,19.43,0,0,0-2.46,5.32,22.35,22.35,0,0,0-.75,9.46,8,8,0,0,0,.78,2.49,4,4,0,0,0,1.59,1.71,5.13,5.13,0,0,0,2.62.61,7.42,7.42,0,0,0,3.39-.91,16.4,16.4,0,0,0,4-3.2Z"/><path class="cls-2" d="M335.67,45.7a6,6,0,0,1-4-1.11,4,4,0,0,1-1.27-3.19,8.63,8.63,0,0,1,.09-1.26q.09-.59.23-1.34l4.5-19.3H330l.61-2.63h5.28l2-8.47h5.2l-2,8.47h8l-.6,2.63h-8l-3.73,15.92q-.26,1.1-.43,2.12a10.79,10.79,0,0,0-.17,1.75,3,3,0,0,0,.79,2.33,4.27,4.27,0,0,0,2.88.74,16.51,16.51,0,0,0,2.11-.19,9.92,9.92,0,0,0,2.11-.48l-.49,2.11q-2,.78-3.81,1.34A14.11,14.11,0,0,1,335.67,45.7Z"/><path class="cls-2" d="M377.3,27.27a21.18,21.18,0,0,1-1.16,6.83,18,18,0,0,1-3.35,6,17,17,0,0,1-5.36,4.27A15.74,15.74,0,0,1,360.17,46a10.34,10.34,0,0,1-7.79-3.09,11.48,11.48,0,0,1-3-8.33,20,20,0,0,1,4.68-13,16.42,16.42,0,0,1,5.36-4.06,15.66,15.66,0,0,1,6.92-1.55,10.42,10.42,0,0,1,8,3.14A11.63,11.63,0,0,1,377.3,27.27Zm-5.89-1.1q0-4.11-1.46-6.16a4.84,4.84,0,0,0-4.2-2.05,7.79,7.79,0,0,0-4.52,1.48,11.54,11.54,0,0,0-3.65,4.8,22.24,22.24,0,0,0-1.73,5.6,32.54,32.54,0,0,0-.55,5.68,11.25,11.25,0,0,0,1.43,6.26A4.85,4.85,0,0,0,361,43.91a7,7,0,0,0,4.56-1.62,12.26,12.26,0,0,0,3.24-4.11,22.39,22.39,0,0,0,1.91-5.57A31,31,0,0,0,371.41,26.17Z"/><path class="cls-2" d="M429.57,41.83l-.43,1.85a38.46,38.46,0,0,1-4.26,1.49,11,11,0,0,1-2.73.42,4.63,4.63,0,0,1-3.48-1.2,4.11,4.11,0,0,1-1.16-3,9.47,9.47,0,0,1,.12-1.4q.11-.77.38-1.81l2.85-10.79q.32-1.24.51-2.26a9.38,9.38,0,0,0,.19-1.62,5,5,0,0,0-.83-3.07,3.07,3.07,0,0,0-2.64-1.13,8.48,8.48,0,0,0-3.78.91,15.56,15.56,0,0,0-4.18,3.4L405,45.09h-5.37l4.56-19.32c.1-.42.19-.87.27-1.34a6.44,6.44,0,0,0,.13-1.06,4.34,4.34,0,0,0-.93-3A3.44,3.44,0,0,0,401,19.35a9.51,9.51,0,0,0-3.62.83,14.35,14.35,0,0,0-4.59,3.69l-4.94,21.23h-5.4l4.33-18.75q.23-1,.45-2.17a11,11,0,0,0,.22-2,3.17,3.17,0,0,0-.55-2.21,3.15,3.15,0,0,0-2.15-.54,7.27,7.27,0,0,0-1.64.24l-1.55.39.44-1.86a29.86,29.86,0,0,1,4-1.51,11.26,11.26,0,0,1,3-.49,3.92,3.92,0,0,1,3.3,1.26,5.73,5.73,0,0,1,1,3.43h.17a39.34,39.34,0,0,1,5.6-3.85,11.06,11.06,0,0,1,5.22-1.16,5.88,5.88,0,0,1,4.17,1.49,5.62,5.62,0,0,1,1.8,3.75h.11a36.26,36.26,0,0,1,5.48-3.9,11.37,11.37,0,0,1,5.6-1.33,5.49,5.49,0,0,1,4.24,1.61,6,6,0,0,1,1.48,4.21q0,.52-.16,1.85a19,19,0,0,1-.51,2.63l-2.43,9.29q-.26.93-.49,2.13a10.58,10.58,0,0,0-.23,1.87,2.87,2.87,0,0,0,.69,2.24,3.62,3.62,0,0,0,2.34.59,12.47,12.47,0,0,0,1.59-.14A8.12,8.12,0,0,0,429.57,41.83Z"/><path class="cls-2" d="M447.2,41.94l-.43,1.85a38,38,0,0,1-4.25,1.49,10.94,10.94,0,0,1-2.72.42,4.6,4.6,0,0,1-3.47-1.2,4.11,4.11,0,0,1-1.16-3,8.8,8.8,0,0,1,.12-1.39q.12-.72.38-1.82L438.72,26q.23-1,.45-2.17a11,11,0,0,0,.22-2,3.13,3.13,0,0,0-.53-2.15,3.16,3.16,0,0,0-2.18-.54,9.51,9.51,0,0,0-1.69.2q-1.05.2-1.6.35l.43-1.85a28.54,28.54,0,0,1,4-1.5,11.43,11.43,0,0,1,2.83-.49A4.55,4.55,0,0,1,444.13,17a4.23,4.23,0,0,1,1.07,3,11.83,11.83,0,0,1-.12,1.42,14.78,14.78,0,0,1-.35,1.79l-3.07,12.29q-.29,1.13-.5,2.21a9.52,9.52,0,0,0-.21,1.78,2.82,2.82,0,0,0,.73,2.26,3.72,3.72,0,0,0,2.38.61,12,12,0,0,0,1.57-.14A8,8,0,0,0,447.2,41.94Zm2.05-37a4.24,4.24,0,0,1-1.07,2.88,3.38,3.38,0,0,1-2.66,1.23A3.33,3.33,0,0,1,443,7.92a3.85,3.85,0,0,1-1.07-2.67A4,4,0,0,1,443,2.47a3.31,3.31,0,0,1,2.54-1.18,3.51,3.51,0,0,1,2.69,1.11A3.67,3.67,0,0,1,449.25,5Z"/><path class="cls-2" d="M461.73,45.9a10.76,10.76,0,0,1-8-2.95q-2.93-3-2.93-8.39a21.6,21.6,0,0,1,1.11-6.93A19.83,19.83,0,0,1,455,21.75a15.6,15.6,0,0,1,5-4.21,14.1,14.1,0,0,1,6.78-1.63q4.13,0,6.28,1.75a5.45,5.45,0,0,1,2.15,4.41,6.46,6.46,0,0,1-.94,3.5,3.1,3.1,0,0,1-2.82,1.5,3.18,3.18,0,0,1-2.34-.78,2.39,2.39,0,0,1-.78-1.73A7.47,7.47,0,0,1,469,22q.62-1.6,1-2.58a2.11,2.11,0,0,0-1.42-1.14,7.28,7.28,0,0,0-2.28-.36q-3.93,0-6.78,4.58a20.87,20.87,0,0,0-2.85,11.23,10.49,10.49,0,0,0,1.84,6.52,5.91,5.91,0,0,0,5,2.41,8.6,8.6,0,0,0,5-1.5,17.73,17.73,0,0,0,4.18-4.25l1.65,1.21a18.46,18.46,0,0,1-5.42,5.45A12.69,12.69,0,0,1,461.73,45.9Z"/></g></g></svg>