<?xml version="1.0" encoding="utf-8"?>
<!-- Generator: Adobe Illustrator 16.0.0, SVG Export Plug-In . SVG Version: 6.00 Build 0)  -->
<!DOCTYPE svg PUBLIC "-//W3C//DTD SVG 1.1//EN" "http://www.w3.org/Graphics/SVG/1.1/DTD/svg11.dtd">
<svg version="1.1" id="Layer_1" xmlns="http://www.w3.org/2000/svg" xmlns:xlink="http://www.w3.org/1999/xlink" x="0px" y="0px"
	 width="181.392px" height="30.167px" viewBox="0 0 181.392 30.167" enable-background="new 0 0 181.392 30.167"
	 xml:space="preserve">
<g>
	<g>
		<path fill="#409CD1" d="M171.832,6.9V6.143h3.873V6.9h-1.486v3.784h-0.901V6.9H171.832z M177.773,6.143l1.16,3.251l1.168-3.251
			h1.291v4.542h-0.833V7.02l-1.257,3.665h-0.727l-1.27-3.665v3.665h-0.834V6.143H177.773z"/>
	</g>
	<g>
		<g>
			<path fill="#409CD1" d="M59.903,29.759h6.218v-15.18c1.042-0.947,3.36-2.554,6.817-2.792c0.853-0.044,1.234-0.023,1.234-0.023
				V5.768c0,0-0.381-0.004-1.234-0.004c-3.413,0-5.694,2.112-6.925,3.438l0,0v-3.06h-6.11V29.759z"/>
			<path fill="#409CD1" d="M83.855,5.764c-3.319,0-5.563,1.994-6.818,3.324v5.491c1.042-0.947,3.36-2.554,6.818-2.792
				c0.853-0.044,1.234-0.023,1.234-0.023V5.768C85.089,5.768,84.708,5.764,83.855,5.764z"/>
			<path fill="#409CD1" d="M76.161,14.579c-0.11,0.004-0.228,0.01-0.361,0.017c-2.086,0.143-3.754,0.785-4.98,1.479v13.684h6.218
				v-15.18H76.161z"/>
		</g>
		<path fill="#409CD1" d="M13.742,12.732c0-4.218,3.271-6.966,10.235-6.966c6.962,0,10.235,2.748,10.235,6.966v10.375
			c0,4.264-3.272,7.014-10.235,7.014c-6.964,0-10.235-2.75-10.235-7.014V12.732z M28.002,13.254c0-1.754-1.375-2.558-4.026-2.558
			c-2.654,0-4.026,0.804-4.026,2.558v9.332c0,1.8,1.372,2.607,4.026,2.607c2.651,0,4.026-0.809,4.026-2.607V13.254z"/>
		<path fill="#409CD1" d="M50.939,22.633c-0.947,0.758-2.89,2.086-5.211,2.086c-1.99,0-2.557-0.807-2.557-2.513L43.168,6.143h-6.204
			v17.63c0,3.691,2.511,6.348,6.821,6.348c3.791,0,6.064-1.518,7.296-2.607v0.002v2.229h6.043l0.018-23.6h-6.203V22.633z"/>
		<path fill="#409CD1" d="M11.894,5.983H6.283L6.282,0H0v22.664c0,4.665,2.14,7.048,9.139,7.048h2.542V24.57h-1.589
			c-2.667,0-3.808-0.81-3.808-2.573L6.282,11.9h5.611L11.894,5.983z"/>
		<path fill="#409CD1" d="M129.273,0.137h-6.213v8.237c-1.375-1.043-3.742-2.559-7.393-2.559c-4.688,0-6.867,2.702-6.867,6.917
			V23.25c0,4.218,2.179,6.917,6.867,6.917c3.787,0,6.205-1.604,7.531-2.649v2.273h6.073L129.273,0.137L129.273,0.137z
			 M123.06,22.587c-0.996,0.759-3.128,2.179-5.449,2.179c-2.227,0-2.605-1.229-2.605-2.511V13.68c0-1.231,0.381-2.464,2.605-2.464
			c2.321,0,4.453,1.422,5.449,2.18V22.587z"/>
		<path fill="#409CD1" d="M106.009,12.59c0-4.218-2.604-6.824-9.522-6.824c-6.773,0-9.568,2.605-9.568,6.824v1.358H92.7V12.8l0,0
			c0.027-1.652,0.984-2.39,3.645-2.39c2.748,0,3.554,0.948,3.554,2.655v3.03h-6.541c-4.687,0-7.105,2.797-7.105,5.969v2.134
			c0,3.127,2.18,5.923,6.822,5.923c3.318,0,5.638-1.471,7.012-2.607l0.006,0.012v2.219h5.915L106.009,12.59z M99.898,23.152
			c-1.087,0.809-3.035,2.041-5.211,2.041c-1.422,0-2.371-0.43-2.371-1.851v-0.758c0-1.232,0.429-2.133,2.273-2.133h5.309V23.152z"/>
		<path fill="#409CD1" d="M132.583,13.995h5.776v-1.146l0,0c0.027-1.654,0.981-2.391,3.642-2.391c2.75,0,3.558,0.949,3.558,2.653
			v3.031h-6.539c-4.69,0-7.106,2.797-7.106,5.971v2.131c0,3.126,2.18,5.923,6.823,5.923c3.313,0,5.638-1.469,7.011-2.606
			l0.006,0.013v2.219h5.912l0.006-0.037v-0.256v-0.94v-15.92c0-4.218-2.608-6.823-9.525-6.823c-6.771,0-9.562,2.604-9.562,6.823
			V13.995L132.583,13.995z M145.558,23.201c-1.092,0.806-3.033,2.039-5.215,2.039c-1.42,0-2.368-0.428-2.368-1.85v-0.757
			c0-1.233,0.427-2.132,2.274-2.132h5.309V23.201z"/>
		<path fill="#409CD1" d="M154.421,29.759h6.218v-15.18c1.042-0.947,3.36-2.554,6.817-2.792c0.854-0.044,1.234-0.023,1.234-0.023
			V5.768c0,0-0.381-0.004-1.234-0.004c-3.412,0-5.693,2.112-6.926,3.438l0,0v-3.06h-6.109V29.759z"/>
	</g>
</g>
</svg>
